<svg width="262" height="94" fill="none" xmlns="http://www.w3.org/2000/svg"><path d="M.325 83.986c0-2.92.974-5.29 2.92-7.109 1.989-1.82 4.465-2.73 7.427-2.73 3.004 0 5.48.91 7.427 2.73 1.989 1.82 2.983 4.19 2.983 7.11 0 2.877-.973 5.226-2.92 7.045-1.947 1.778-4.443 2.666-7.49 2.666-3.005 0-5.48-.888-7.427-2.666-1.947-1.82-2.92-4.168-2.92-7.046zM.325 32c0-2.92.974-5.29 2.92-7.11 1.989-1.819 4.465-2.729 7.427-2.729 3.004 0 5.48.91 7.427 2.73 1.989 1.82 2.983 4.19 2.983 7.109 0 2.878-.973 5.226-2.92 7.046-1.947 1.777-4.443 2.666-7.49 2.666-3.005 0-5.48-.889-7.427-2.666-1.947-1.82-2.92-4.168-2.92-7.046zM37.332 93V.578h28.437c8.125 0 15.383 1.841 21.773 5.523 6.432 3.639 11.447 8.844 15.044 15.615 3.597 6.728 5.395 14.388 5.395 22.978v4.253c0 8.59-1.777 16.23-5.332 22.915-3.512 6.687-8.484 11.87-14.917 15.552C81.3 91.096 74.042 92.958 65.96 93H37.332zm19.043-76.997v61.7h9.204c7.448 0 13.14-2.434 17.075-7.3 3.936-4.867 5.946-11.829 6.03-20.884V44.63c0-9.395-1.946-16.504-5.84-21.328-3.892-4.867-9.584-7.3-17.075-7.3h-9.394zm97.563 67.983c0-2.92.974-5.29 2.92-7.109 1.989-1.82 4.465-2.73 7.427-2.73 3.005 0 5.48.91 7.427 2.73 1.989 1.82 2.983 4.19 2.983 7.11 0 2.877-.973 5.226-2.92 7.045-1.946 1.778-4.443 2.666-7.49 2.666-3.004 0-5.48-.888-7.427-2.666-1.946-1.82-2.92-4.168-2.92-7.046zm0-51.987c0-2.92.974-5.29 2.92-7.11 1.989-1.819 4.465-2.729 7.427-2.729 3.005 0 5.48.91 7.427 2.73 1.989 1.82 2.983 4.19 2.983 7.109 0 2.878-.973 5.226-2.92 7.046-1.946 1.777-4.443 2.666-7.49 2.666-3.004 0-5.48-.889-7.427-2.666-1.946-1.82-2.92-4.168-2.92-7.046zm56.05 28.438V93h-19.043V.578H227c6.94 0 13.034 1.27 18.281 3.809 5.29 2.539 9.352 6.157 12.188 10.854 2.835 4.655 4.253 9.966 4.253 15.933 0 9.056-3.111 16.208-9.331 21.455-6.179 5.205-14.748 7.808-25.708 7.808h-16.695zm0-15.425H227c5.036 0 8.866-1.185 11.489-3.555 2.666-2.37 3.999-5.755 3.999-10.156 0-4.528-1.333-8.189-3.999-10.982-2.666-2.793-6.347-4.231-11.045-4.316h-17.456v29.009z" fill="#000" fill-opacity=".05"/></svg>